<svg xmlns="http://www.w3.org/2000/svg" width="1280" height="720" viewBox="0 0 1280 720">
  <rect width="1280" height="720" fill="#0f172a"/>
  <rect x="40" y="36" width="1200" height="648" rx="28" fill="#111827" stroke="#334155"/>
  <text x="80" y="96" fill="#f8fafc" font-family="Arial" font-size="38" font-weight="700">Thing Planner PM — Project Command Center</text>
  <text x="80" y="132" fill="#94a3b8" font-family="Arial" font-size="18">Template-first project dashboard with health, milestones, blockers, tasks, and AI guidance.</text>
  <g font-family="Arial" font-size="20" font-weight="700">
    <rect x="80" y="170" width="260" height="118" rx="18" fill="#1e293b" stroke="#475569"/><text x="110" y="218" fill="#f8fafc">Project Health</text><text x="110" y="258" fill="#22c55e" font-size="34">On Track</text>
    <rect x="368" y="170" width="260" height="118" rx="18" fill="#1e293b" stroke="#475569"/><text x="398" y="218" fill="#f8fafc">Progress</text><text x="398" y="258" fill="#38bdf8" font-size="34">42%</text>
    <rect x="656" y="170" width="260" height="118" rx="18" fill="#1e293b" stroke="#475569"/><text x="686" y="218" fill="#f8fafc">Open Blockers</text><text x="686" y="258" fill="#fb923c" font-size="34">3</text>
    <rect x="944" y="170" width="260" height="118" rx="18" fill="#1e293b" stroke="#475569"/><text x="974" y="218" fill="#f8fafc">Due Soon</text><text x="974" y="258" fill="#facc15" font-size="34">7</text>
  </g>
  <rect x="80" y="324" width="540" height="300" rx="22" fill="#1e293b" stroke="#475569"/>
  <text x="110" y="370" fill="#f8fafc" font-family="Arial" font-size="26" font-weight="700">Next Actions</text>
  <text x="110" y="420" fill="#cbd5e1" font-family="Arial" font-size="20">• Review blocked procurement task</text>
  <text x="110" y="462" fill="#cbd5e1" font-family="Arial" font-size="20">• Confirm milestone acceptance criteria</text>
  <text x="110" y="504" fill="#cbd5e1" font-family="Arial" font-size="20">• Export weekly status report</text>
  <rect x="664" y="324" width="540" height="300" rx="22" fill="#1e293b" stroke="#475569"/>
  <text x="694" y="370" fill="#f8fafc" font-family="Arial" font-size="26" font-weight="700">Current Milestones</text>
  <rect x="694" y="408" width="450" height="18" rx="9" fill="#334155"/><rect x="694" y="408" width="280" height="18" rx="9" fill="#38bdf8"/>
  <rect x="694" y="468" width="450" height="18" rx="9" fill="#334155"/><rect x="694" y="468" width="340" height="18" rx="9" fill="#22c55e"/>
  <rect x="694" y="528" width="450" height="18" rx="9" fill="#334155"/><rect x="694" y="528" width="160" height="18" rx="9" fill="#f59e0b"/>
</svg>
